<?xml version="1.0" encoding="UTF-8" standalone="no"?>
<!-- Created with Inkscape (http://www.inkscape.org/) -->

<svg
   xmlns:dc="http://purl.org/dc/elements/1.1/"
   xmlns:cc="http://creativecommons.org/ns#"
   xmlns:rdf="http://www.w3.org/1999/02/22-rdf-syntax-ns#"
   xmlns:svg="http://www.w3.org/2000/svg"
   xmlns="http://www.w3.org/2000/svg"
   xmlns:sodipodi="http://sodipodi.sourceforge.net/DTD/sodipodi-0.dtd"
   xmlns:inkscape="http://www.inkscape.org/namespaces/inkscape"
   width="320"
   height="240"
   viewBox="0 0 84.666665 63.500002"
   version="1.1"
   id="svg8"
   inkscape:version="0.92.4 (5da689c313, 2019-01-14)"
   sodipodi:docname="yabot-pixs.svg"
   inkscape:export-filename="Z:\home\roman\yabot\charger\pics\yabot-pixs.png"
   inkscape:export-xdpi="96"
   inkscape:export-ydpi="96">
  <defs
     id="defs2">
    <inkscape:path-effect
       effect="perspective-envelope"
       up_left_point="6.0570237,211.24365"
       up_right_point="107.82743,186.50709"
       down_left_point="7.0207201,222.71431"
       down_right_point="108.82166,232.42973"
       id="path-effect5652"
       is_visible="true"
       deform_type="perspective"
       horizontal_mirror="false"
       vertical_mirror="false"
       overflow_perspective="false" />
    <inkscape:path-effect
       effect="perspective-envelope"
       up_left_point="26.687741,32.190465"
       up_right_point="182.69928,45.205788"
       down_left_point="27.691996,105.39079"
       down_right_point="185.20992,71.730469"
       id="path-effect5635"
       is_visible="true"
       deform_type="perspective"
       horizontal_mirror="false"
       vertical_mirror="false"
       overflow_perspective="false" />
  </defs>
  <sodipodi:namedview
     id="base"
     pagecolor="#ffffff"
     bordercolor="#666666"
     borderopacity="1.0"
     inkscape:pageopacity="0.0"
     inkscape:pageshadow="2"
     inkscape:zoom="1.08"
     inkscape:cx="-21.812169"
     inkscape:cy="102.85714"
     inkscape:document-units="mm"
     inkscape:current-layer="layer1"
     showgrid="false"
     units="px"
     inkscape:snap-text-baseline="true"
     inkscape:window-width="1920"
     inkscape:window-height="1017"
     inkscape:window-x="-8"
     inkscape:window-y="-8"
     inkscape:window-maximized="1" />
  <metadata
     id="metadata5">
    <rdf:RDF>
      <cc:Work
         rdf:about="">
        <dc:format>image/svg+xml</dc:format>
        <dc:type
           rdf:resource="http://purl.org/dc/dcmitype/StillImage" />
        <dc:title></dc:title>
      </cc:Work>
    </rdf:RDF>
  </metadata>
  <g
     inkscape:label="Layer 1"
     inkscape:groupmode="layer"
     id="layer1"
     transform="translate(0,-233.49998)">
    <g
       aria-label="Yabot"
       transform="matrix(0.48789274,0,0,0.54586064,-11.49915,218.71348)"
       style="font-style:normal;font-variant:normal;font-weight:normal;font-stretch:normal;font-size:40px;line-height:1.25;font-family:Magneto;-inkscape-font-specification:Magneto;letter-spacing:0px;word-spacing:0px;fill:#000000;fill-opacity:1;stroke:none"
       id="flowRoot3713"
       inkscape:path-effect="#path-effect5635">
      <path
         d="m 108.83169,39.043355 c 0,0 -11.572049,43.485119 -11.572049,43.485119 -0.629905,2.337858 -1.834073,4.335921 -3.637076,6.002874 -1.843591,1.704479 -3.979945,2.822184 -6.425531,3.334175 0,0 -37.084634,7.763792 -37.084634,7.763792 0.841689,-3.069601 2.532853,-5.643836 5.033446,-7.709302 2.43891,-2.046025 5.276971,-3.325706 8.48444,-3.863756 0,0 19.733571,-3.31029 19.733571,-3.31029 0,0 7.295459,-24.096721 7.295459,-24.096721 0,0 -11.548273,13.469781 -11.548273,13.469781 -2.591997,3.007014 -6.259069,4.85008 -11.111023,5.48191 -2.926324,0.381071 -5.481884,0.116601 -7.633706,-0.814535 -2.514549,-1.093886 -3.829969,-2.958806 -3.904885,-5.571581 -0.03565,-1.24317 0.177259,-2.505249 0.636662,-3.781823 0,0 9.754557,-25.871357 9.754557,-25.871357 0,0 -8.907787,-0.397871 -8.907787,-0.397871 0.161975,0.820662 0.251233,1.507402 0.267832,2.060722 0.08664,2.888239 -1.190906,5.34639 -3.887563,7.409815 -2.735412,2.120883 -6.198505,3.231523 -10.448919,3.289195 -4.413609,0.05989 -8.342432,-1.027321 -11.721884,-3.306348 -3.467199,-2.3382 -5.257524,-5.188112 -5.302897,-8.49537 -0.0475,-3.46209 1.742974,-6.237345 5.285487,-8.285493 3.267923,-1.870563 6.98841,-2.608216 11.121163,-2.263439 0,0 32.668199,2.725357 32.668199,2.725357 1.96457,0.163895 3.552494,0.826918 4.782556,1.981798 1.215384,1.116402 1.855896,2.55554 1.931705,4.329112 0.04291,1.003903 -0.102562,2.013661 -0.437717,3.032325 0,0 -8.152736,24.287634 -8.152736,24.287634 0,0 22.015255,-29.318718 22.015255,-29.318718 0.497469,-0.676334 1.317298,-1.229031 2.450253,-1.657067 1.117563,-0.422219 2.101285,-0.595261 2.956125,-0.523945 0,0 7.35997,0.614007 7.35997,0.614007 z"
         id="path5624"
         inkscape:original-d="m 72.955078,43.859375 -8.28125,23.769531 q -0.605469,1.71875 -2.089844,2.714844 -1.484375,0.996094 -3.300781,0.996094 H 44.166016 q 0.46875,-1.757813 1.816406,-2.753907 1.347656,-1.015625 3.183594,-1.015625 h 8.4375 l 4.121093,-11.582031 -5.878906,6.230469 q -1.816406,1.914062 -4.84375,1.914062 -1.757812,0 -2.96875,-0.78125 -1.386719,-0.898437 -1.386719,-2.578125 0,-0.800781 0.273438,-1.601562 l 4.121094,-11.542969 h -3.515625 q 0.07813,0.546875 0.07813,0.917969 0,1.933594 -1.523438,3.300781 -1.503906,1.367188 -3.652344,1.367188 -2.148437,0 -3.671875,-1.367188 -1.523437,-1.367187 -1.523437,-3.300781 0,-2.03125 1.601562,-3.398438 1.523438,-1.289062 3.554688,-1.289062 h 12.695312 q 1.347657,0 2.1875,0.800781 0.839844,0.78125 0.839844,2.128906 0,0.761719 -0.273437,1.542969 L 53.677734,60.011719 65.162109,45.304687 q 0.449219,-0.585937 1.445313,-1.015625 0.996094,-0.429687 1.757812,-0.429687 z"
         inkscape:connector-curvature="0" />
      <path
         d="m 140.46087,76.111874 c -0.43684,3.150004 -2.02444,5.02651 -4.84399,5.616792 0,0 -8.83741,1.850142 -8.83741,1.850142 -2.72914,0.571355 -4.20177,-0.255581 -4.34093,-2.493038 -1.76382,3.063407 -4.1223,4.939342 -7.12214,5.580386 -2.28244,0.487739 -4.23172,0.05733 -5.81768,-1.318764 -1.61253,-1.399154 -2.5035,-3.480253 -2.65227,-6.219894 -0.26699,-4.916816 1.1977,-8.956586 4.29246,-12.037629 2.69405,-2.690174 5.99841,-4.127298 9.84102,-4.376499 0,0 13.6609,-0.885936 13.6609,-0.885936 0,0 -3.17713,15.857407 -3.17713,15.857407 0,0 8.99717,-1.572967 8.99717,-1.572967 z m -15.24682,-8.698873 c 0,0 -5.72745,0.563203 -5.72745,0.563203 0,0 -1.44829,7.824104 -1.44829,7.824104 -0.0815,0.499367 -0.11045,0.947208 -0.0867,1.342927 0.11495,1.914898 1.72567,2.602215 4.74082,2.07508 0,0 2.52162,-11.805314 2.52162,-11.805314 z"
         id="path5626"
         inkscape:original-d="m 96.021484,68.214844 q -0.9375,3.125 -4.785156,3.125 h -7.402344 q -3.164062,0 -3.164062,-2.03125 -2.128906,2.421875 -5.234375,2.421875 -2.285156,0 -3.710938,-1.40625 -1.425781,-1.40625 -1.425781,-3.671875 0,-4.082032 3.125,-6.445313 2.832031,-2.148437 7.011719,-2.148437 h 11.152344 l -3.671875,10.15625 z m -12.597656,-7.03125 h -4.316406 l -1.367188,4.550781 q -0.117187,0.429687 -0.117187,0.78125 0,1.699219 3.320312,1.699219 z"
         inkscape:connector-curvature="0" />
      <path
         d="m 168.28679,59.645429 c -0.35164,2.381673 -1.18986,3.649067 -2.53627,3.781465 0,0 -7.62798,0.750088 -7.62798,0.750088 -0.0203,4.665122 -1.25847,8.339635 -3.80446,11.080008 -1.95083,2.097141 -4.40988,3.479742 -7.42956,4.111921 0,0 -3.45606,0.723537 -3.45606,0.723537 -0.64034,0.134058 -1.22373,0.02805 -1.74818,-0.320846 -0.70053,-0.469915 -1.09722,-1.321024 -1.18507,-2.548876 -0.05,-0.698242 0.002,-1.508855 0.15439,-2.42934 0,0 4.86309,-27.510912 4.86309,-27.510912 0,0 6.24431,0.268816 6.24431,0.268816 0,0 -4.40944,27.301593 -4.40944,27.301593 2.5713,-0.35977 4.21917,-2.15059 5.00897,-5.335176 -1.12505,-0.851145 -1.7608,-2.142519 -1.89332,-3.861439 -0.1032,-1.338653 0.15218,-2.507318 0.7605,-3.498368 0.61222,-0.979982 1.37996,-1.49565 2.2982,-1.5552 0,0 14.76088,-0.957271 14.76088,-0.957271 z"
         id="path5628"
         inkscape:original-d="m 131.37305,58.058594 q -1.28907,3.125 -4.31641,3.125 h -10.54687 q -0.76172,5.585937 -5.76172,8.222656 -3.67188,1.933594 -8.57422,1.933594 h -3.554689 q -0.957032,0 -1.679688,-0.46875 -0.957031,-0.625 -0.957031,-1.894532 0,-0.722656 0.3125,-1.640625 l 6.972658,-19.550781 h 7.03125 l -7.28516,20.390625 q 4.19922,0.09766 5.97656,-3.359375 -1.8164,-1.132812 -1.8164,-3.085937 0,-1.523438 1.17187,-2.597657 1.19141,-1.074218 2.83203,-1.074218 z"
         inkscape:connector-curvature="0" />
      <path
         d="m 180.39278,58.860333 c -0.0706,2.087384 -0.7696,3.202408 -2.12525,3.335715 0,0 -6.92452,0.680914 -6.92452,0.680914 0.28786,0.286809 0.55049,0.839488 0.78851,1.657605 0.2362,0.802023 0.36547,1.508712 0.38825,2.122065 0.10065,2.387404 -0.3093,4.355547 -1.24556,5.921892 -0.9133,1.532726 -2.22227,2.498706 -3.9541,2.882433 -2.08578,0.475308 -3.80917,0.101404 -5.12774,-1.154508 -1.19502,-1.130483 -1.89039,-2.799049 -2.06956,-4.986631 -0.0353,-0.430551 -0.046,-0.864282 -0.0323,-1.300909 0.0574,-2.429305 0.63042,-4.374654 1.70121,-5.824022 1.11468,-1.499421 2.65767,-2.300594 4.59549,-2.426266 0,0 14.00558,-0.908288 14.00558,-0.908288 z m -11.77796,4.284903 c 0,0 -2.94353,0.289448 -2.94353,0.289448 0,0 -0.70861,5.970699 -0.70861,5.970699 -0.0372,0.315569 -0.0442,0.611302 -0.0209,0.88691 0.11114,1.317873 0.88213,1.849336 2.28497,1.59805 0.16417,-0.02941 0.30569,-0.06237 0.42472,-0.09889 0,0 0.96338,-8.646212 0.96338,-8.646212 z"
         id="path5630"
         inkscape:original-d="m 152.70117,58.058594 q -0.78125,3.125 -4.6875,3.125 h -12.22656 q 0.64453,0.429687 1.05469,1.582031 0.41015,1.132812 0.33203,1.972656 -0.27344,3.261719 -2.8711,5.117188 -2.48046,1.777343 -6.44531,1.796875 -4.60937,0.03906 -7.08984,-1.816407 -2.20703,-1.640625 -2.20703,-4.316406 0,-0.527344 0.0976,-1.054687 0.50782,-2.949219 2.92969,-4.628907 2.57813,-1.777343 6.875,-1.777343 z m -21.28906,3.125 h -4.47266 l -1.75781,5 q -0.13672,0.390625 -0.13672,0.742187 0,1.679688 3.125,1.679688 0.3711,0 0.64453,-0.01953 z"
         inkscape:connector-curvature="0" />
      <path
         d="m 184.88942,68.344471 c -0.0937,2.061174 -0.76092,3.228126 -2.02735,3.493257 0,0 -5.11206,1.070227 -5.11206,1.070227 -1.0561,0.221099 -1.65766,-0.386403 -1.78702,-1.824582 -0.0323,-0.359214 -0.0269,-0.753103 0.016,-1.181104 0,0 0.70531,-7.550539 0.70531,-7.550539 0,0 -1.78004,0.175038 -1.78004,0.175038 0,0 0.39681,-3.336231 0.39681,-3.336231 1.20213,-0.685258 2.04582,-1.502434 2.54947,-2.455389 0.56099,-1.060557 1.08075,-2.936087 1.55891,-5.601783 0,0 1.89286,0.03351 1.89286,0.03351 0,0 -0.64534,7.67632 -0.64534,7.67632 0,0 2.45139,-0.158977 2.45139,-0.158977 -0.19479,2.037685 -0.88933,3.123258 -2.10583,3.242882 0,0 -0.64676,0.0636 -0.64676,0.0636 0,0 -0.5944,7.250298 -0.5944,7.250298 0,0 5.12802,-0.896527 5.12802,-0.896527 z"
         id="path5632"
         inkscape:original-d="m 160.10352,68.214844 q -0.91797,3.125 -4.88282,3.125 h -9.96093 q -2.89063,0 -2.89063,-2.03125 0,-0.507813 0.21484,-1.09375 l 2.48047,-7.03125 h -3.20312 l 1.23047,-3.125 q 3.41797,-0.878907 5.07812,-2.246094 1.875,-1.542969 4.00391,-5.585938 h 3.80859 l -2.7539,7.832032 h 5.03906 q -1.21094,3.125 -4.92188,3.125 h -1.28906 l -2.44141,7.03125 z"
         inkscape:connector-curvature="0" />
    </g>
    <g
       aria-label="Charger"
       transform="scale(0.76264024,1.3112342)"
       style="font-style:normal;font-variant:normal;font-weight:normal;font-stretch:normal;font-size:18.26164246px;line-height:1.25;font-family:Magneto;-inkscape-font-specification:Magneto;letter-spacing:0px;word-spacing:0px;fill:#000000;fill-opacity:1;stroke:none;stroke-width:0.45654103"
       id="text3723"
       inkscape:path-effect="#path-effect5652">
      <path
         d="m 11.024637,211.75219 c 0.03906,0.48215 -0.02974,0.90612 -0.20493,1.26917 -0.165186,0.33951 -0.373169,0.52741 -0.622737,0.56592 -0.2486199,0.0384 -0.4754985,-0.0786 -0.6816229,-0.34864 -0.212341,-0.28384 -0.3365745,-0.65389 -0.3742538,-1.1124 -0.012565,-0.15289 -0.014458,-0.2858 -0.00567,-0.39879 -0.4686867,0.10695 -0.8458544,0.66758 -1.135674,1.66749 -0.2653481,0.92527 -0.3580491,1.83732 -0.2821338,2.74921 0.1422855,1.70912 0.7711664,2.55122 1.9411858,2.52789 0,0 1.7714569,-0.0353 1.7714569,-0.0353 -0.01733,0.72571 -0.283856,1.08521 -0.789532,1.08119 0,0 -1.260014,-0.01 -1.260014,-0.01 -0.7441684,-0.006 -1.3436292,-0.21704 -1.8120908,-0.62608 -0.6251034,-0.54877 -0.9794076,-1.43677 -1.0780609,-2.67892 -0.054669,-0.69603 -0.012026,-1.40545 0.1292993,-2.13454 0.195015,-1.01207 0.5294023,-1.85995 1.0116667,-2.54612 0.4821503,-0.68696 1.0380412,-1.11359 1.6727002,-1.26785 0,0 0.68762,-0.16714 0.68762,-0.16714 0.2278525,-0.0554 0.4470615,0.0629 0.6569835,0.35731 0.214299,0.2966 0.340076,0.66657 0.375807,1.10764 0,0 2e-6,0 2e-6,0 z"
         style="font-style:normal;font-variant:normal;font-weight:normal;font-stretch:normal;font-family:Magneto;-inkscape-font-specification:Magneto;stroke-width:0.45654103"
         id="path5637"
         inkscape:original-d="m 28.471609,205.38545 q 0,0.93626 -0.740096,1.57827 -0.704429,0.60635 -1.649611,0.60635 -0.9541,0 -1.667445,-0.60635 -0.740096,-0.64201 -0.740096,-1.57827 0,-0.31209 0.07133,-0.53501 -1.908199,0.0178 -3.468642,1.97953 -1.462359,1.8547 -1.462359,3.8164 0,3.68265 4.806165,3.68265 h 4.485159 q -0.276421,1.42669 -2.166786,1.42669 h -3.290306 q -3.076302,0 -4.993418,-0.89168 -2.630461,-1.23053 -2.603711,-4.00366 0.01783,-1.55152 0.9541,-3.10305 1.275105,-2.1222 3.620228,-3.35272 2.273788,-1.19486 4.832915,-1.19486 h 1.783363 q 0.864932,0 1.54261,0.65985 0.686595,0.65984 0.686595,1.51586 z"
         inkscape:connector-curvature="0" />
      <path
         d="m 17.208425,218.52148 c -0.04864,0.45915 -0.201168,0.79728 -0.455335,1.01382 -0.180521,0.15303 -0.379433,0.22818 -0.596318,0.22645 0,0 -1.885124,-0.015 -1.885124,-0.015 -0.316574,-0.003 -0.488743,-0.2004 -0.520101,-0.59381 -0.01224,-0.15357 -0.0065,-0.34108 0.01732,-0.56289 0,0 0.177489,-1.55524 0.177489,-1.55524 0,0 -1.356375,2.27241 -1.356375,2.27241 -0.158619,0.28351 -0.337344,0.42348 -0.535793,0.4219 0,0 -0.767098,-0.006 -0.767098,-0.006 0,0 0.942447,-8.53527 0.942447,-8.53527 0,0 1.462113,-0.3023 1.462113,-0.3023 0,0 -0.744243,6.31367 -0.744243,6.31367 0,0 1.111392,-1.90156 1.111392,-1.90156 0.298247,-0.51185 0.667287,-0.79634 1.11021,-0.8478 0.300473,-0.0349 0.472626,0.20693 0.513259,0.72564 0.01473,0.18808 0.0042,0.40649 -0.03151,0.65475 0,0 -0.360442,2.72956 -0.360442,2.72956 0,0 1.918106,-0.0383 1.918106,-0.0383 z"
         style="font-style:normal;font-variant:normal;font-weight:normal;font-stretch:normal;font-family:Magneto;-inkscape-font-specification:Magneto;stroke-width:0.45654103"
         id="path5639"
         inkscape:original-d="m 40.268559,214.32902 q -0.231837,0.78468 -0.989767,1.15918 -0.543926,0.26751 -1.168103,0.26751 h -3.798564 q -1.007601,0 -1.007601,-0.73118 0,-0.28534 0.133753,-0.69551 l 0.642011,-1.89929 -3.379474,2.78205 q -0.624177,0.54393 -1.319689,0.54393 H 27.54426 l 3.816398,-10.77152 h 3.210055 l -2.683963,7.5793 2.71963,-2.22921 q 1.052184,-0.86493 2.389707,-0.86493 0.891682,0 0.891682,0.90952 0,0.32992 -0.160503,0.75793 l -1.132436,3.19222 z"
         inkscape:connector-curvature="0" />
      <path
         d="m 24.518965,218.37569 c -0.13912,0.96948 -0.632241,1.44751 -1.45986,1.44093 0,0 -2.245654,-0.0179 -2.245654,-0.0179 -0.603897,-0.005 -0.921973,-0.29343 -0.965487,-0.86626 -0.341062,0.68128 -0.789672,1.01429 -1.340327,1.008 -0.396962,-0.005 -0.728906,-0.19739 -0.998868,-0.57574 -0.267231,-0.37452 -0.423228,-0.86166 -0.470037,-1.4646 -0.08442,-1.08745 0.107604,-1.96715 0.584729,-2.65024 0.442402,-0.63544 1.037743,-0.99989 1.796826,-1.0847 0,0 3.305264,-0.36931 3.305264,-0.36931 0,0 -0.802108,4.63153 -0.802108,4.63153 0,0 2.595522,-0.0518 2.595522,-0.0518 z m -4.154425,-2.9535 c 0,0 -1.208761,0.10069 -1.208761,0.10069 0,0 -0.22508,1.92959 -0.22508,1.92959 -0.0119,0.12021 -0.01411,0.22905 -0.0066,0.32663 0.03606,0.47146 0.353843,0.70111 0.965116,0.68892 0,0 0.475372,-3.04583 0.475372,-3.04583 z"
         style="font-style:normal;font-variant:normal;font-weight:normal;font-stretch:normal;font-family:Magneto;-inkscape-font-specification:Magneto;stroke-width:0.45654103"
         id="path5641"
         inkscape:original-d="m 51.789089,214.32902 q -0.428007,1.42669 -2.184621,1.42669 h -3.379473 q -1.444525,0 -1.444525,-0.92735 -0.971933,1.10568 -2.389707,1.10568 -1.043268,0 -1.694195,-0.64201 -0.650928,-0.64201 -0.650928,-1.67636 0,-1.86361 1.426691,-2.94255 1.292938,-0.98085 3.201137,-0.98085 h 5.091503 l -1.676362,4.63675 z m -5.751348,-3.21006 h -1.970616 l -0.624178,2.07762 q -0.0535,0.19617 -0.0535,0.35667 0,0.77577 1.515859,0.77577 z"
         inkscape:connector-curvature="0" />
      <path
         d="m 33.565908,218.19526 c 0.03362,0.49789 -0.17002,0.91845 -0.605802,1.25792 -0.379468,0.29275 -0.781058,0.43594 -1.204075,0.43257 0,0 -3.09092,-0.0246 -3.09092,-0.0246 -0.764632,-0.006 -1.167897,-0.41151 -1.22533,-1.21702 -0.0146,-0.2047 0.0015,-0.42614 0.04828,-0.66475 0,0 0.619403,-3.20222 0.619403,-3.20222 0,0 -1.567155,0.13055 -1.567155,0.13055 0,0 -0.588061,2.75549 -0.588061,2.75549 -0.09677,0.45846 -0.358374,0.69102 -0.780126,0.69943 0,0 -0.705764,0.0141 -0.705764,0.0141 0,0 0.633237,-3.34898 0.633237,-3.34898 -0.2848,-0.0629 -0.523326,-0.23365 -0.716898,-0.51147 -0.188443,-0.28261 -0.296248,-0.61484 -0.32428,-0.9981 -0.0512,-0.70007 0.142873,-1.27466 0.588461,-1.72963 0.377239,-0.3825 0.850673,-0.61993 1.425005,-0.70919 0,0 1.172003,-0.18215 1.172003,-0.18215 0,0 -0.446213,2.44372 -0.446213,2.44372 0,0 4.322048,-0.48291 4.322048,-0.48291 0,0 -1.13094,5.40858 -1.13094,5.40858 0,0 3.577126,-0.0713 3.577126,-0.0713 z"
         style="font-style:normal;font-variant:normal;font-weight:normal;font-stretch:normal;font-family:Magneto;-inkscape-font-specification:Magneto;stroke-width:0.45654103"
         id="path5643"
         inkscape:original-d="m 62.230681,214.32902 q 0,0.62417 -0.686595,1.05218 -0.606344,0.37451 -1.266188,0.37451 h -3.415141 q -1.355357,0 -1.355357,-1.12352 0,-0.28534 0.115919,-0.61526 l 1.0076,-2.89797 h -1.899282 l -0.989767,2.55913 q -0.249671,0.65093 -1.078935,0.65093 h -0.945182 l 1.168103,-3.21006 q -0.552843,-0.12483 -0.900599,-0.55284 -0.338839,-0.43693 -0.338839,-0.99868 0,-1.02544 0.9541,-1.5872 0.793596,-0.46367 1.890365,-0.46367 h 1.444524 l -0.749012,2.1757 h 4.931 l -1.622861,4.63675 z"
         inkscape:connector-curvature="0" />
      <path
         d="m 48.157087,217.90427 c -0.341841,1.40973 -1.639055,2.09883 -3.796391,2.08168 0,0 -2.161075,-0.0172 -2.161075,-0.0172 -0.570359,1.92994 -1.157829,3.28885 -1.762535,4.09623 -0.864823,1.15202 -1.984672,1.64901 -3.335571,1.52008 -0.739941,-0.0706 -1.334355,-0.35434 -1.791397,-0.84756 -0.444453,-0.47923 -0.691192,-1.11316 -0.744459,-1.90688 -0.104283,-1.55392 0.223792,-2.55255 0.999456,-3.0024 -0.609273,-0.16345 -1.115299,-0.47847 -1.523046,-0.94326 -0.467893,-0.52249 -0.724689,-1.15345 -0.775111,-1.89862 -0.0197,-0.29116 -0.0014,-0.59858 0.05514,-0.92289 0.181262,-1.18097 0.700364,-2.11377 1.575519,-2.80501 0.788905,-0.6328 1.792658,-1.02285 3.029839,-1.16109 0,0 6.618267,-0.73947 6.618267,-0.73947 0,0 -1.861724,6.65552 -1.861724,6.65552 0,0 5.473089,-0.10915 5.473089,-0.10915 z m -8.449565,-4.09339 c 0,0 -2.275015,0.18951 -2.275015,0.18951 0,0 -0.627416,2.93512 -0.627416,2.93512 -0.03567,0.17445 -0.04881,0.33283 -0.03947,0.47534 0.04176,0.63723 0.481063,0.94885 1.334449,0.93496 0.05583,-9.1e-4 0.135998,-0.006 0.240696,-0.0155 0.112077,-0.01 0.196513,-0.0149 0.253091,-0.0158 0,0 1.113662,-4.50357 1.113662,-4.50357 z m -1.484405,6.43484 c -0.450446,-0.006 -0.849431,0.26726 -1.198255,0.81361 -0.337352,0.54719 -0.486458,1.0919 -0.450429,1.63886 0.03211,0.48753 0.246766,0.89107 0.647388,1.21358 0,0 1.001296,-3.66605 1.001296,-3.66605 z"
         style="font-style:normal;font-variant:normal;font-weight:normal;font-stretch:normal;font-family:Magneto;-inkscape-font-specification:Magneto;stroke-width:0.45654103"
         id="path5645"
         inkscape:original-d="m 73.813628,214.32902 q -0.410173,1.42669 -2.648294,1.42669 H 69.57814 q -0.793597,2.15787 -1.578277,3.12088 -1.150269,1.40886 -2.915799,1.40886 -0.998684,0 -1.59611,-0.56176 -0.58851,-0.55284 -0.58851,-1.54261 0,-1.93495 1.132436,-2.49671 -0.838181,-0.19617 -1.382107,-0.77576 -0.633094,-0.65985 -0.633094,-1.59611 0,-0.36559 0.115918,-0.76685 0.383424,-1.45344 1.685279,-2.19353 1.141353,-0.65985 2.74638,-0.65985 h 5.100419 l -1.631777,4.63675 z m -5.876182,-3.21006 h -1.899282 l -0.713346,2.26487 q -0.06242,0.20509 -0.06242,0.37451 0,0.75793 1.105686,0.75793 0.07133,0 0.205087,-0.009 0.142669,-0.009 0.214003,-0.009 z m -1.56936,4.8775 q -0.579593,0 -1.087852,0.65985 -0.499342,0.66876 -0.499342,1.3286 0,0.58851 0.508259,0.94518 z"
         inkscape:connector-curvature="0" />
      <path
         d="m 70.665933,217.45538 c -0.287259,0.88388 -0.99483,1.57548 -2.104144,2.0709 -0.96898,0.42929 -2.063589,0.63564 -3.275209,0.62601 0,0 -10.326994,-0.0821 -10.326994,-0.0821 -5.014485,-0.0399 -7.375317,-1.33653 -7.526455,-3.89954 -0.09723,-1.64877 0.590794,-3.00791 2.111651,-4.10929 1.363564,-0.98578 3.08633,-1.60687 5.210582,-1.84422 0,0 2.479962,-0.27709 2.479962,-0.27709 1.51841,-0.16966 2.907351,-0.12171 4.150686,0.154 1.711713,0.37955 2.660505,1.14261 2.79823,2.27883 0.124577,1.14834 -0.529957,2.14428 -1.928789,2.96726 0,0 -6.059246,0.27486 -6.059246,0.27486 0,0 1.715513,-3.32058 1.715513,-3.32058 0,0 -3.606972,0.30047 -3.606972,0.30047 0,0 -1.131499,3.52599 -1.131499,3.52599 -0.06294,0.20084 -0.08991,0.38111 -0.08103,0.5411 0.0423,0.76191 0.754488,1.12882 2.172694,1.10053 0,0 15.40102,-0.30714 15.40102,-0.30714 z"
         style="font-style:normal;font-variant:normal;font-weight:normal;font-stretch:normal;font-family:Magneto;-inkscape-font-specification:Magneto;stroke-width:0.45654103"
         id="path5647"
         inkscape:original-d="m 84.932898,214.32902 q -0.187253,0.68659 -0.856014,1.07893 -0.597427,0.34776 -1.364273,0.34776 h -4.966668 q -4.333573,0 -4.333573,-2.61263 0,-1.67636 1.480192,-2.63046 1.275105,-0.82035 3.031718,-0.82035 h 1.292938 q 1.132436,0 1.988451,0.34776 1.141352,0.46367 1.194853,1.40885 0.04458,0.9541 -0.918432,1.5872 h -2.951467 l 0.963017,-1.91712 h -1.881449 l -0.731179,2.14895 q -0.06242,0.18726 -0.06242,0.33884 0,0.72227 1.159187,0.72227 z"
         inkscape:connector-curvature="0" />
      <path
         d="m 108.48114,216.70124 c 0.024,1.10871 -1.09794,2.04766 -3.30812,2.79839 -1.8906,0.63622 -3.81489,0.9394 -5.76895,0.92387 0,0 -13.367365,-0.10626 -13.367365,-0.10626 -3.078585,-0.0245 -4.586608,-0.83286 -4.647637,-2.42848 -0.01552,-0.40574 0.09267,-0.84611 0.325475,-1.32282 0,0 3.147124,-6.51649 3.147124,-6.51649 0,0 -6.21345,0.51759 -6.21345,0.51759 0,0 -2.756655,5.46202 -2.756655,5.46202 -0.446532,0.89261 -1.456798,1.35116 -2.998506,1.38191 0,0 -2.530584,0.0505 -2.530584,0.0505 0,0 2.871862,-6.44341 2.871862,-6.44341 -1.022772,-0.0798 -1.850963,-0.37197 -2.49405,-0.87321 -0.62048,-0.50844 -0.944402,-1.12263 -0.977088,-1.8474 -0.05974,-1.32468 0.729365,-2.46706 2.411493,-3.45136 1.446059,-0.84119 3.244874,-1.43604 5.430779,-1.77576 0,0 4.603201,-0.71541 4.603201,-0.71541 0,0 -2.254549,5.04674 -2.254549,5.04674 0,0 18.334482,-2.04856 18.334482,-2.04856 0,0 -6.340555,11.67789 -6.340555,11.67789 0,0 16.533093,-0.32972 16.533093,-0.32972 z"
         style="font-style:normal;font-variant:normal;font-weight:normal;font-stretch:normal;font-family:Magneto;-inkscape-font-specification:Magneto;stroke-width:0.45654103"
         id="path5649"
         inkscape:original-d="m 95.329912,214.32902 q 0,0.62417 -0.686595,1.05218 -0.606343,0.37451 -1.266188,0.37451 h -3.415141 q -1.355356,0 -1.355356,-1.12352 0,-0.28534 0.115919,-0.61526 l 1.0076,-2.89797 h -1.899282 l -0.989767,2.55913 q -0.249671,0.65093 -1.078935,0.65093 h -0.945183 l 1.168104,-3.21006 q -0.552843,-0.12483 -0.900599,-0.55284 -0.338839,-0.43693 -0.338839,-0.99868 0,-1.02544 0.954099,-1.5872 0.793597,-0.46367 1.890366,-0.46367 h 1.444524 l -0.749012,2.1757 h 4.931 l -1.622861,4.63675 z"
         inkscape:connector-curvature="0" />
    </g>
  </g>
</svg>
